<svg width="23" height="23" viewBox="0 0 23 23" fill="none" xmlns="http://www.w3.org/2000/svg">
<g clip-path="url(#clip0_242_39)">
<path d="M18.467 9.90629C18.3138 9.90655 18.167 9.96751 18.0587 10.0758C17.9504 10.1841 17.8894 10.331 17.8891 10.4842V19.9065H16.2236L13.0266 13.2557C13.4827 12.7401 13.6782 12.0242 13.5297 11.339C13.4608 11.0004 13.3129 10.6829 13.098 10.4123C12.8832 10.1417 12.6075 9.92564 12.2934 9.78171V9.00354C12.2956 8.89583 12.2763 8.78876 12.2367 8.68858C12.197 8.5884 12.1378 8.49711 12.0625 8.42004C11.9873 8.34297 11.8974 8.28166 11.7982 8.23968C11.6989 8.19771 11.5923 8.1759 11.4846 8.17554C11.339 8.17555 11.196 8.2146 11.0706 8.28863C10.9455 8.36485 10.8429 8.47304 10.7735 8.60207C10.7041 8.7311 10.6704 8.8763 10.6758 9.02271V9.71271C10.1949 9.88731 9.7897 10.2238 9.5297 10.6644C9.2697 11.105 9.17107 11.6223 9.25073 12.1277C9.3196 12.5621 9.51685 12.9659 9.8171 13.2873L6.74085 19.9065H3.92335C3.41919 19.9032 2.93672 19.701 2.58084 19.3439C2.22497 18.9868 2.02448 18.5036 2.02298 17.9994V4.80796C2.01723 5.86404 2.86919 6.72463 3.92623 6.73038C3.96843 6.73049 4.01062 6.72921 4.05273 6.72654H18.1834C18.1834 6.72654 20.6127 6.51763 20.9261 8.20238C20.8098 8.21419 20.7019 8.26856 20.6232 8.35505C20.5445 8.44154 20.5005 8.55406 20.4996 8.671C20.4996 9.35238 19.9448 9.90725 19.2519 9.90725L18.467 9.90629ZM16.5044 21.598C16.6123 21.8204 16.6275 22.0765 16.5467 22.3102C16.4658 22.5438 16.2955 22.7357 16.0731 22.8438C15.9523 22.9 15.8211 22.9303 15.6879 22.9329C15.584 22.9353 15.4804 22.9207 15.3812 22.8898C15.3582 22.8821 15.3371 22.8697 15.3141 22.8601C15.2363 22.8277 15.1632 22.7851 15.0966 22.7336C15.0723 22.7151 15.0493 22.6959 15.0276 22.6761C14.9456 22.6003 14.8775 22.5108 14.8263 22.4116L13.6226 19.9065L12.1296 16.7967C12.07 16.6692 11.9752 16.5614 11.8563 16.486C11.7374 16.4106 11.5995 16.3708 11.4587 16.3712H11.4568C11.3151 16.3714 11.1763 16.4114 11.0561 16.4866C10.936 16.5619 10.8394 16.6693 10.7774 16.7967L9.33027 19.9065L8.14864 22.4423C8.08254 22.5948 7.97672 22.7269 7.84221 22.8246C7.7077 22.9224 7.54943 22.9823 7.38389 22.9981C7.32352 23.0029 7.26506 22.9962 7.2066 22.9895C7.17338 22.9875 7.14048 22.9837 7.10789 22.978C7.06189 22.9684 7.01685 22.9511 6.97181 22.9348C6.94306 22.9233 6.91431 22.9157 6.88556 22.9023C6.83852 22.8773 6.79364 22.8484 6.75139 22.816C6.73031 22.8032 6.70923 22.7892 6.68814 22.7738C6.62694 22.7218 6.57253 22.6622 6.52619 22.5965C6.43245 22.4592 6.37685 22.2995 6.36506 22.1336C6.35327 21.9678 6.38573 21.8018 6.4591 21.6526L7.26985 19.9065L10.4017 13.1685C10.0381 12.8999 9.79446 12.4993 9.72319 12.053C9.57464 11.1138 10.2148 10.2321 11.154 10.0826V9.00354C11.1511 8.94325 11.1645 8.88329 11.1928 8.82999C11.2212 8.77669 11.2634 8.73203 11.315 8.70071C11.3664 8.67055 11.425 8.65466 11.4846 8.65466C11.5442 8.65466 11.6028 8.67055 11.6542 8.70071C11.7057 8.73215 11.7477 8.77687 11.7758 8.83016C11.804 8.88345 11.8173 8.94334 11.8143 9.00354V10.1143L11.8267 10.12C12.1345 10.2044 12.4128 10.3725 12.6307 10.6057C12.8486 10.8388 12.9976 11.1278 13.0611 11.4406C13.1298 11.7548 13.1084 12.082 12.9992 12.3845C12.89 12.687 12.6975 12.9524 12.4439 13.1503L15.6917 19.9065L16.5044 21.598ZM12.4429 11.7933C12.4439 11.6547 12.4176 11.5174 12.3655 11.389C12.3134 11.2607 12.2365 11.1439 12.1393 11.0453C12.042 10.9466 11.9262 10.8682 11.7986 10.8143C11.671 10.7605 11.534 10.7323 11.3955 10.7314C11.1138 10.7311 10.8432 10.8416 10.6422 11.039C10.4456 11.2352 10.3344 11.5011 10.3327 11.7789C10.3317 11.9174 10.358 12.0547 10.4101 12.1831C10.4622 12.3114 10.5391 12.4283 10.6364 12.5269C10.7336 12.6255 10.8494 12.704 10.977 12.7578C11.1046 12.8117 11.2416 12.8398 11.3801 12.8407H11.3878C11.6664 12.841 11.9338 12.7309 12.1315 12.5347C12.3292 12.3384 12.4412 12.0718 12.4429 11.7933ZM11.4587 16.8504C11.408 16.8503 11.3583 16.8641 11.3149 16.8903C11.2715 16.9165 11.236 16.954 11.2124 16.9989L9.85831 19.9065H13.0917L11.6954 16.9999C11.6745 16.9549 11.641 16.9169 11.599 16.8903C11.5571 16.8638 11.5084 16.85 11.4587 16.8504ZM19.2624 10.3855H18.467C18.4408 10.3855 18.4157 10.3959 18.3972 10.4144C18.3787 10.4329 18.3683 10.458 18.3683 10.4842V22.8563C18.3683 22.8813 18.3777 22.9055 18.3948 22.9238C18.4119 22.9421 18.4353 22.9533 18.4603 22.955H19.2691C19.7229 22.9532 20.1575 22.7717 20.4778 22.4502C20.798 22.1286 20.9779 21.6933 20.9779 21.2395V8.67004C20.9779 9.125 20.7971 9.56132 20.4754 9.88302C20.1537 10.2047 19.7174 10.3855 19.2624 10.3855ZM2.50119 4.80796V4.82521C2.50444 5.20215 2.65562 5.56272 2.92217 5.82927C3.18871 6.09582 3.54929 6.247 3.92623 6.25025L4.05177 6.24738H5.13373C5.31318 5.00249 5.8597 3.83936 6.70348 2.90663H3.92814C3.50606 2.90853 3.09654 3.0504 2.76374 3.31002C2.43094 3.56963 2.19367 3.93232 2.0891 4.34125C2.32102 4.37575 2.50119 4.56646 2.50119 4.807M8.5751 2.02879L7.58035 0.314333C7.5622 0.282512 7.55266 0.246509 7.55266 0.209875C7.55266 0.173241 7.5622 0.137239 7.58035 0.105417C7.59985 0.0750073 7.62623 0.0496172 7.65737 0.0313027C7.6885 0.0129883 7.72351 0.00226451 7.75956 0C7.796 0.000586675 7.83166 0.0106063 7.86306 0.0290815C7.89447 0.0475568 7.92056 0.0738569 7.93877 0.105417L8.94502 1.84479C9.7465 1.48549 10.6149 1.29974 11.4932 1.29974C12.3716 1.29974 13.24 1.48549 14.0414 1.84479L15.0419 0.105417C15.0736 0.0664851 15.1183 0.0402093 15.1677 0.0313573C15.2171 0.0225054 15.2681 0.0316639 15.3113 0.057171C15.3545 0.0826781 15.3872 0.122843 15.4034 0.170378C15.4195 0.217913 15.4181 0.269668 15.3994 0.31625L14.4123 2.03167C15.1959 2.46193 15.8707 3.06562 16.3853 3.7966C16.8998 4.52758 17.2405 5.36651 17.3812 6.24929L5.60619 6.24833C5.74695 5.36581 6.08752 4.52713 6.6019 3.79633C7.11629 3.06553 7.79087 2.46195 8.57414 2.03167M13.7271 4.5425C13.7286 4.60732 13.7428 4.67121 13.769 4.73052C13.7952 4.78983 13.8329 4.84339 13.8798 4.88816C13.9267 4.93292 13.9819 4.96801 14.0424 4.99141C14.1028 5.01481 14.1673 5.02607 14.2321 5.02454C14.297 5.02467 14.3613 5.012 14.4213 4.98725C14.4813 4.9625 14.5358 4.92617 14.5818 4.88033C14.6277 4.83448 14.6641 4.78003 14.689 4.72009C14.7138 4.66015 14.7266 4.59589 14.7266 4.531C14.7263 4.43244 14.6968 4.33619 14.6419 4.25437C14.5869 4.17255 14.509 4.10882 14.4179 4.07122C14.3268 4.03361 14.2266 4.0238 14.1299 4.04303C14.0333 4.06227 13.9445 4.10968 13.8747 4.17929C13.8267 4.22682 13.7889 4.28361 13.7635 4.34621C13.7381 4.40882 13.7257 4.47592 13.7271 4.54346M8.24831 4.53771C8.24894 4.60252 8.26232 4.66658 8.28771 4.72622C8.31309 4.78586 8.34997 4.83991 8.39625 4.8853C8.44252 4.93068 8.49728 4.96651 8.55741 4.99073C8.61753 5.01495 8.68183 5.02709 8.74664 5.02646C8.8119 5.02787 8.87676 5.01593 8.93724 4.99138C8.99772 4.96682 9.05255 4.93017 9.09835 4.88367C9.15301 4.83961 9.19778 4.78455 9.22975 4.72205C9.26173 4.65956 9.28019 4.59103 9.28395 4.52094C9.2877 4.45084 9.27666 4.38073 9.25153 4.31518C9.22641 4.24963 9.18778 4.1901 9.13814 4.14046C9.0885 4.09082 9.02897 4.05219 8.96342 4.02707C8.89787 4.00195 8.82777 3.9909 8.75767 3.99466C8.68757 3.99841 8.61904 4.01687 8.55655 4.04885C8.49406 4.08083 8.43899 4.1256 8.39494 4.18025C8.34793 4.22707 8.31075 4.28281 8.28557 4.34419C8.26039 4.40557 8.24773 4.47137 8.24831 4.53771Z" fill="#DB9FE5"/>
</g>
<defs>
<clipPath id="clip0_242_39">
<rect width="23" height="23" fill="white"/>
</clipPath>
</defs>
</svg>
