<svg width="19" height="25" viewBox="0 0 19 25" fill="none" xmlns="http://www.w3.org/2000/svg">
<path d="M14.0765 5.24488L14.1395 5.28088C13.2868 5.73088 10.85 7.18213 10.85 9.02937C10.85 9.65262 11.2066 10.2534 11.5408 10.8181C11.8355 11.3154 12.1134 11.7834 12.1134 12.2109C12.1134 13.2875 11.0638 14.1234 10.4709 14.5081L10.3584 14.4429C10.5823 14.1695 10.8579 13.7116 10.8579 13.2234C10.8579 12.5506 10.5125 12.0129 10.1626 11.4672C9.80039 10.9036 9.43364 10.331 9.43364 9.5885C9.43364 7.01 12.938 5.62625 14.0765 5.24488ZM9.46964 6.60838C10.8793 5.34838 12.4194 3.97138 12.4194 1.90025C12.4194 0.963125 12.0358 0.364625 11.8456 0.125L11.7838 0.159875C11.8288 0.346625 11.8963 0.690875 11.8963 1.14087C11.8963 3.02637 10.2965 4.34713 8.74852 5.62738C7.29614 6.82888 5.88876 7.99212 5.88876 9.54912C5.88876 11.7822 8.09152 13.1559 9.02189 13.7364L9.09277 13.7814L9.14902 13.7476C9.09877 13.6921 9.04552 13.6351 8.98927 13.5766C8.27377 12.815 7.18702 11.6596 7.18702 9.89225C7.18702 8.65137 8.28164 7.6715 9.46964 6.60838ZM8.96227 17.7549C10.9468 17.7549 12.335 17.4702 12.9515 17.2959L13.8875 17.8359C12.9954 18.2893 11.0176 18.6346 8.95777 18.6346C6.53564 18.6346 3.88739 18.1149 3.87951 17.4219C3.87389 17.0394 4.74014 16.7851 5.67389 16.6209L5.73014 16.6535C5.73014 16.6535 5.41402 16.7671 5.41739 17.0281C5.42189 17.4219 7.01489 17.7549 8.96114 17.7549M4.99101 20.1973C4.99101 19.7394 5.93489 19.5223 6.36689 19.4356L6.42314 19.4694C6.34889 19.5245 6.30839 19.5999 6.30839 19.664C6.30839 19.9644 7.35464 20.2389 8.95889 20.2389C10.3966 20.2389 11.1954 20.0623 11.6701 19.9486L12.7839 20.5933C12.7333 20.6293 11.6364 21.3189 8.95664 21.3189C7.00927 21.3189 4.99101 20.8329 4.99101 20.1973ZM14.5861 18.2533C15.9136 17.4961 17.2423 16.6006 17.3176 15.1629C17.3671 14.219 16.4998 13.5271 15.5514 13.7116L15.602 13.5856V13.5834C15.8405 13.5114 16.1353 13.4529 16.4649 13.4529C17.5258 13.4529 18.3391 14.0885 18.4426 14.9784C18.6519 16.7626 16.1229 17.9236 14.7065 18.323L14.5861 18.2533ZM16.808 21.6148C16.8193 22.841 12.6478 23.57 8.91952 23.6026C5.70089 23.6308 0.511265 23.0232 0.500015 21.797C0.493265 20.9499 2.75001 20.3638 3.97626 20.195L4.10564 20.2681C4.10564 20.2681 2.27752 20.6923 2.28314 21.4629C2.28989 22.2313 6.13627 22.8961 8.91389 22.8725C13.217 22.8343 16.1296 22.1334 16.4739 21.1828L16.5346 21.1479C16.6606 21.2401 16.8046 21.392 16.808 21.6148ZM3.71751 24.1123C5.30932 24.3666 6.91943 24.4889 8.53139 24.4779C15.5154 24.4171 17.4864 22.7004 17.7901 22.3269L17.843 22.3584C17.771 23.7174 14.0776 24.8469 9.52252 24.8863C7.20389 24.9065 5.09339 24.6388 3.57689 24.1944L3.71751 24.1123ZM6.64476 13.6689C5.43089 13.7622 2.82427 14.1481 2.82427 14.8344C2.82427 15.3541 5.21377 16.0865 8.95777 16.0865C12.326 16.0865 14.4523 15.4509 14.9484 15.209L14.225 14.7871C13.7075 14.9277 11.7849 15.3564 8.95777 15.3564C7.29277 15.3564 4.42402 15.0492 4.42402 14.5801C4.42402 14.1594 6.21389 13.8354 6.72802 13.742L6.76064 13.7364L6.64476 13.6689Z" fill="#DB9FE5"/>
</svg>
