<svg width="21" height="21" viewBox="0 0 21 21" fill="none" xmlns="http://www.w3.org/2000/svg">
<path d="M10.394 0.124489C10.0623 0.116614 9.76567 0.208982 9.47463 0.368286L2.41797 4.51513L2.13644 4.68083L2.00388 4.77189C1.82882 4.87492 1.6413 5.12462 1.51661 5.29279L2.20042 5.67407L2.66308 5.92836L4.23677 6.8143L4.63938 7.03743C4.84232 6.79281 4.85364 6.77558 5.04494 6.61644L9.44723 4.01047C9.70218 3.87102 10.0976 3.68629 10.3883 3.69285C10.6785 3.69958 11.0511 3.78407 11.2992 3.935L15.1522 6.12393L15.6352 6.3925C15.8593 6.53969 16.0694 6.70731 16.2627 6.89322L19.3345 5.05736L19.0611 4.79092C18.7506 4.54023 18.6438 4.49315 18.4272 4.38125L11.4294 0.432599C11.1453 0.259513 10.7266 0.132364 10.394 0.124489ZM10.4393 4.03656C10.2835 4.03656 9.94122 4.10399 9.80603 4.18159L5.22787 6.90011C5.09285 6.97754 4.95635 7.22544 4.87842 7.35965C4.80049 7.49385 4.7411 7.76193 4.74077 7.90154L4.73174 13.3573C4.73142 13.5125 4.80081 13.6864 4.87874 13.8206C4.95667 13.9548 5.08678 14.08 5.2218 14.1576L9.92711 16.8144C10.1027 16.8953 10.3684 16.9435 10.5243 16.9435C10.6802 16.9435 10.881 16.9194 11.1328 16.816L15.6314 14.1627C15.7666 14.0849 15.9759 13.8719 16.0539 13.7377C16.1318 13.6034 16.2996 13.2628 16.2988 13.1076L16.2749 7.77226C16.2747 7.61722 16.1384 7.30468 16.0604 7.17064C15.9825 7.03611 15.6857 6.78346 15.5505 6.70586L11.0946 4.19668C10.9594 4.11908 10.5953 4.03656 10.4393 4.03656ZM19.4956 5.29164L19.3048 5.41058L16.4379 7.12356C16.5068 7.28762 16.5841 7.66136 16.5931 7.83936L16.5935 7.841L16.5948 7.89219V13.0273C16.5975 13.3179 16.5237 13.6041 16.3808 13.8572C16.2379 14.1102 16.0308 14.3211 15.7805 14.4688L11.6078 16.9814C11.4565 17.0708 11.0979 17.2101 10.7133 17.2835L10.7136 17.5322L10.7076 18.816L10.7066 19.4353L10.7136 20.8759C10.9195 20.8743 11.2614 20.7503 11.4393 20.6528L11.4913 20.6229L11.4928 20.6223L18.7932 16.3152C19.0792 16.1461 19.3156 15.9048 19.4788 15.6154C19.6419 15.326 19.7261 14.9988 19.7228 14.6667V6.1907C19.7205 5.9515 19.6047 5.51919 19.4956 5.29164ZM1.38979 5.54807L1.32171 5.86782C1.26396 6.3482 1.27413 6.3966 1.28856 6.63974L1.2866 14.7092C1.28331 15.0417 1.27035 15.5032 1.43409 15.7929C1.597 16.082 1.91249 16.2522 2.19813 16.4208L9.61375 20.6211L9.61506 20.6218L9.66724 20.6512C9.89676 20.7568 10.1571 20.839 10.4206 20.8548L10.4226 20.0555L10.4232 19.4406L10.4223 17.5696L10.4213 17.2726C10.1245 17.2533 9.89331 17.1653 9.74205 17.0759L5.30563 14.592C5.05511 14.4444 4.74175 14.2782 4.59885 14.0252C4.45612 13.772 4.39345 13.3876 4.39624 13.0969L4.39903 8.3286L4.40034 7.98472C4.41035 7.75274 4.44578 7.59048 4.51305 7.30386L1.38979 5.54807ZM10.4662 6.33065C10.5666 6.33065 10.8016 6.38429 10.8887 6.43433L13.7603 8.051C13.8474 8.10088 14.0388 8.26429 14.089 8.35058C14.1393 8.43721 14.2269 8.63835 14.2269 8.73826L14.2426 12.1768C14.2429 12.2768 14.1351 12.4964 14.0846 12.5831C14.0344 12.6697 13.8997 12.8067 13.8128 12.8567L10.9136 14.5671C10.7512 14.6337 10.6216 14.6499 10.5209 14.6499C10.4204 14.6499 10.2497 14.6184 10.1366 14.5663L7.1036 12.8541C7.01276 12.8015 6.93669 12.7268 6.88244 12.6369C6.83224 12.5503 6.78745 12.438 6.78761 12.3383L6.79335 8.82226C6.79335 8.73236 6.83191 8.55943 6.88195 8.47281C6.93231 8.38618 7.02042 8.22672 7.10737 8.17684L10.058 6.42465C10.1452 6.37461 10.366 6.33114 10.4664 6.33114L10.4662 6.33065Z" fill="#DB9FE5"/>
</svg>
