<svg width="264" height="264" viewBox="0 0 264 264" fill="none" xmlns="http://www.w3.org/2000/svg">
    <circle cx="132" cy="132" r="132" fill="black"/>
    <path d="M53.9121 194V88.9707H91.1191C109.771 88.9707 123.761 93.2432 133.087 101.788C142.413 110.284 147.076 123.077 147.076 140.167C147.076 156.524 141.974 169.586 131.769 179.352C121.612 189.117 108.062 194 91.1191 194H53.9121ZM77.5693 108.233V174.811H89.2881C99.542 174.811 107.574 171.734 113.385 165.582C119.244 159.43 122.174 151.056 122.174 140.46C122.174 130.45 119.269 122.589 113.458 116.876C107.696 111.114 99.5908 108.233 89.1416 108.233H77.5693ZM219.463 188.873C213.945 191.314 208.599 193.072 203.423 194.146C198.247 195.27 192.656 195.831 186.65 195.831C170.293 195.831 157.402 191.266 147.979 182.135C138.604 172.955 133.916 159.845 133.916 142.804C133.916 126.837 139.043 113.58 149.297 103.033C159.551 92.4863 173.076 87.2129 189.873 87.2129C195.488 87.2129 200.493 87.6035 204.888 88.3848C209.331 89.166 213.945 90.4355 218.73 92.1934L211.772 111.31C208.159 109.991 204.692 109.039 201.372 108.453C198.052 107.867 194.463 107.574 190.605 107.574C182.012 107.574 174.565 110.602 168.267 116.656C161.968 122.662 158.818 130.816 158.818 141.119C158.818 151.764 161.553 160.089 167.021 166.095C172.539 172.101 180.083 175.104 189.653 175.104C192.144 175.104 195.293 174.713 199.102 173.932C202.959 173.102 206.938 171.759 211.04 169.903L219.463 188.873Z" fill="white"/>
</svg>
