<svg width="22" height="22" viewBox="0 0 24 24" fill="none" xmlns="http://www.w3.org/2000/svg">
<g clip-path="url(#clip0_269_31)">
<mask id="mask0_269_31" style="mask-type:luminance" maskUnits="userSpaceOnUse" x="0" y="0" width="24" height="24">
<path d="M0 0H24V24H0V0Z" fill="white"/>
</mask>
<g mask="url(#mask0_269_31)">
<path d="M11.914 0C5.82 0 6.2 2.656 6.2 2.656L6.207 5.408H12.021V6.234H3.9C3.9 6.234 0 5.789 0 11.969C0 18.149 3.403 17.929 3.403 17.929H5.433V15.062C5.433 15.062 5.324 11.642 8.783 11.642H14.549C14.549 11.642 17.789 11.694 17.789 8.494V3.202C17.789 3.202 18.281 0 11.914 0ZM8.708 1.85C9.286 1.85 9.754 2.32 9.754 2.902C9.754 3.483 9.286 3.953 8.708 3.953C8.13 3.953 7.662 3.483 7.662 2.902C7.662 2.32 8.129 1.85 8.708 1.85Z" fill="#DB9FE5"/>
<path d="M12.0869 23.9998C18.1789 23.9998 17.7989 21.3438 17.7989 21.3438L17.7919 18.5918H11.9779V17.7658H20.1009C20.1009 17.7658 24.0009 18.2108 24.0009 12.0308C24.0009 5.8508 20.5969 6.0708 20.5969 6.0708H18.5669V8.9378C18.5669 8.9378 18.6759 12.3578 15.2169 12.3578H9.45194C9.45194 12.3578 6.21194 12.3058 6.21194 15.5058V20.7978C6.21194 20.7978 5.71994 23.9998 12.0869 23.9998ZM15.2929 22.1498C14.7139 22.1498 14.2469 21.6798 14.2469 21.0978C14.2469 20.5168 14.7139 20.0468 15.2929 20.0468C15.8709 20.0468 16.3389 20.5168 16.3389 21.0978C16.3389 21.6798 15.8709 22.1498 15.2929 22.1498Z" fill="#DB9FE5"/>
</g>
</g>
<defs>
<clipPath id="clip0_269_31">
<rect width="24" height="24" fill="white"/>
</clipPath>
</defs>
</svg>
