<svg width="49" height="24" viewBox="0 0 49 24" fill="none" xmlns="http://www.w3.org/2000/svg">
    <g clip-path="url(#clip0_262_35)">
        <path d="M37.3394 1.38184V22.4989H47.3501M27.3286 19.8592L29.8313 22.4989M2.30176 19.8592C2.30176 20.5593 2.56543 21.2307 3.03478 21.7257C3.50412 22.2208 4.14069 22.4989 4.80444 22.4989H9.80982C10.4736 22.4989 11.1101 22.2208 11.5795 21.7257C12.0488 21.2307 12.3125 20.5593 12.3125 19.8592V14.58C12.3125 13.8799 12.0488 13.2085 11.5795 12.7135C11.1101 12.2185 10.4736 11.9404 9.80982 11.9404H4.80444C4.14069 11.9404 3.50412 11.6622 3.03478 11.1672C2.56543 10.6722 2.30176 10.0008 2.30176 9.30072V4.02147C2.30176 3.32139 2.56543 2.64999 3.03478 2.15497C3.50412 1.65994 4.14069 1.38184 4.80444 1.38184H9.80982C10.4736 1.38184 11.1101 1.65994 11.5795 2.15497C12.0488 2.64999 12.3125 3.32139 12.3125 4.02147M24.8259 1.38184C26.1534 1.38184 27.4266 1.93804 28.3653 2.9281C29.304 3.91815 29.8313 5.26095 29.8313 6.66109V17.2196C29.8313 18.6198 29.304 19.9626 28.3653 20.9526C27.4266 21.9427 26.1534 22.4989 24.8259 22.4989C23.4984 22.4989 22.2253 21.9427 21.2866 20.9526C20.3479 19.9626 19.8206 18.6198 19.8206 17.2196V6.66109C19.8206 5.26095 20.3479 3.91815 21.2866 2.9281C22.2253 1.93804 23.4984 1.38184 24.8259 1.38184Z" stroke="#DB9FE5" stroke-width="3" stroke-linecap="round" stroke-linejoin="round"/>
    </g>
    <defs>
        <clipPath id="clip0_262_35">
            <rect width="49" height="24" fill="white"/>
        </clipPath>
    </defs>
</svg>
