<svg width="53" height="24" viewBox="0 0 53 24" fill="none" xmlns="http://www.w3.org/2000/svg">
    <g clip-path="url(#clip0_262_31)">
        <path d="M20.1436 11.8411C19.4385 11.8411 18.8625 12.0516 18.4228 12.4723C17.983 12.893 17.7594 13.4455 17.7594 14.1219C17.7594 14.4718 17.8145 14.793 17.9246 15.0856C18.0327 15.3786 18.2041 15.6493 18.4323 15.8951C18.6621 16.1413 19.1196 16.4749 19.8008 16.9006C20.6372 17.4153 21.1854 17.8331 21.4487 18.1585C21.7121 18.4839 21.8438 18.8258 21.8438 19.1818C21.8438 19.6576 21.6885 20.0398 21.3663 20.3249C21.0463 20.6097 20.6177 20.7539 20.084 20.7539C19.5247 20.7537 19.0352 20.5555 18.6153 20.1596C18.1963 19.7629 17.9843 19.2403 17.9776 18.5829H17.7193V20.9661H17.9781C18.0588 20.7411 18.1702 20.6242 18.3126 20.6242C18.3838 20.6242 18.5457 20.6714 18.7996 20.7622C19.4157 20.984 19.9204 21.0905 20.3183 21.0905C21.0024 21.0905 21.5879 20.848 22.0748 20.3573C22.5617 19.8665 22.8077 19.2743 22.8077 18.5829C22.8077 18.047 22.6458 17.5691 22.3286 17.1546C22.0085 16.7389 21.3908 16.2532 20.4653 15.6978C19.6699 15.2153 19.1523 14.8249 18.9126 14.519C18.6729 14.2131 18.5503 13.8766 18.5503 13.5056C18.5503 13.104 18.6977 12.7819 18.9855 12.5407C19.2753 12.3012 19.6521 12.181 20.1275 12.181C20.6579 12.181 21.103 12.3414 21.4537 12.6605C21.8048 12.9825 22.0069 13.426 22.0665 13.9976H22.3286V11.9319H22.0864C22.0553 12.0388 22.028 12.1051 22.0036 12.1358C21.9779 12.1665 21.9324 12.1814 21.8599 12.1814C21.7757 12.1811 21.6269 12.146 21.4135 12.0761C20.9556 11.9207 20.5337 11.8398 20.1436 11.8398V11.8411ZM28.6708 11.8411C27.8104 11.8411 27.0311 12.045 26.3239 12.4545C25.6172 12.8626 25.057 13.4277 24.6432 14.1497C24.2319 14.8701 24.026 15.6381 24.0254 16.4538C24.0254 17.5496 24.3828 18.5278 25.1012 19.3841C25.8225 20.2408 26.6829 20.7751 27.6824 20.979C27.9123 21.0988 28.2389 21.408 28.6679 21.9116C29.1495 22.4752 29.5573 22.8831 29.8935 23.126C30.2216 23.3652 30.5873 23.5479 30.9755 23.6664C31.357 23.783 31.7716 23.8413 32.2193 23.8413C32.7613 23.8413 33.2483 23.746 33.6752 23.55L33.5799 23.3104C33.3255 23.4011 33.0571 23.4465 32.787 23.4447C32.4102 23.4447 32.0268 23.3204 31.6438 23.0659C31.2601 22.813 30.7824 22.3311 30.2107 21.6202C29.942 21.2787 29.7561 21.0631 29.6526 20.979C30.7457 20.7635 31.6467 20.2309 32.3489 19.3762C33.0495 18.521 33.4 17.5469 33.4002 16.4538C33.4002 15.1552 32.9423 14.0656 32.0318 13.1769C31.1208 12.2879 30.0004 11.8411 28.6708 11.8411ZM33.9952 11.8411L34.0097 12.1229C34.5811 12.1229 34.9025 12.2912 34.9737 12.6327C35.0014 12.7558 35.0143 12.9825 35.0176 13.3063L35.0109 19.5234C35.0062 19.9878 34.941 20.2842 34.8151 20.4124C34.6892 20.5401 34.4739 20.6213 34.165 20.652L34.1505 20.9338H39.8633L40.0103 19.5234H39.7486C39.6741 19.9072 39.5043 20.1824 39.2311 20.3378C38.9589 20.4953 38.4758 20.574 37.7818 20.574H37.2398C36.6132 20.5735 36.252 20.3447 36.1562 19.8877C36.1374 19.79 36.1281 19.6908 36.1285 19.5913L36.1496 13.3063C36.1496 12.8433 36.2076 12.5324 36.3293 12.3803C36.4506 12.2282 36.6705 12.1453 36.9893 12.1229L36.9744 11.8411H33.9952ZM28.7644 12.181C29.7333 12.181 30.5275 12.5664 31.1386 13.3419C31.7514 14.1207 32.0541 15.1842 32.0541 16.5313C32.0544 17.8087 31.7466 18.832 31.1308 19.6013C30.5142 20.3718 29.6927 20.7535 28.6704 20.7535C27.6903 20.7535 26.8961 20.3589 26.2879 19.564C25.6784 18.7707 25.3757 17.7407 25.3757 16.4716C25.3752 15.1696 25.682 14.1279 26.2962 13.3465C26.9112 12.5697 27.7339 12.1812 28.7644 12.181ZM41.8997 13.5185C41.7606 13.5185 41.6537 13.567 41.5747 13.661C41.4939 13.7564 41.4695 13.8699 41.4968 14.0104C41.525 14.1464 41.5999 14.2652 41.7217 14.3669C41.8417 14.4655 41.9726 14.519 42.1117 14.519C42.1719 14.521 42.2318 14.5082 42.2859 14.4817C42.34 14.4551 42.3869 14.4157 42.4222 14.3669C42.4948 14.2652 42.5175 14.1464 42.4901 14.0104C42.4612 13.8724 42.3851 13.7488 42.2748 13.661C42.1707 13.5703 42.0377 13.5198 41.8997 13.5185ZM45.6668 14.4718C45.4308 15.3886 44.9161 15.8851 44.1303 15.9647L44.1385 16.227H45.0586L45.0408 19.3323C45.0424 19.8653 45.0573 20.218 45.0942 20.3975C45.1849 20.8285 45.466 21.047 45.9335 21.047C46.6097 21.047 47.3198 20.6341 48.0605 19.8035L47.8369 19.6092C47.3003 20.1563 46.8279 20.4319 46.4126 20.4319C46.1583 20.4319 46.0014 20.2843 45.9418 19.993C45.9249 19.911 45.9173 19.8275 45.919 19.7439L45.9289 16.227H47.3326L47.3198 15.8093H45.9335V14.4722L45.6668 14.4718ZM51.0993 15.6426C50.3134 15.6426 49.6762 16.0281 49.1764 16.7907C48.6833 17.5546 48.5297 18.4014 48.7251 19.3323C48.8383 19.8794 49.0685 20.3026 49.4158 20.6018C49.7652 20.8994 50.2066 21.047 50.7341 21.047C51.226 21.047 51.9117 20.9226 52.1999 20.6698C52.4873 20.4186 52.7543 20.0091 53.0003 19.4488L52.8044 19.2415C52.4111 19.9668 51.619 20.3328 51.024 20.3328C50.2021 20.3328 49.7006 19.881 49.5114 18.9796C49.4875 18.8574 49.4696 18.7342 49.458 18.6103C50.4357 18.4553 51.1739 18.1789 51.6724 17.7813C52.1722 17.3834 52.6736 16.959 52.5796 16.5134C52.5295 16.2595 52.3851 16.0339 52.1755 15.8822C51.9618 15.7251 51.4086 15.6426 51.0998 15.6426H51.0993ZM42.5096 15.675L40.8161 16.0666V16.3713L41.4016 16.2983C41.6848 16.2983 41.8513 16.4264 41.9047 16.6838C41.9226 16.7711 41.9334 16.8909 41.937 17.0431L41.9192 19.8326C41.9125 20.2164 41.8707 20.4418 41.785 20.5094C41.7005 20.576 41.4735 20.6094 41.1039 20.6097L41.0943 20.8737H43.7808L43.7758 20.6097C43.404 20.6097 43.1613 20.5807 43.0545 20.5227C42.9477 20.4659 42.8752 20.3606 42.8425 20.2002C42.8185 20.0854 42.8086 19.886 42.8073 19.6108L42.8156 15.675H42.5096ZM50.6695 16.1914C50.8324 16.1914 50.9931 16.254 51.1515 16.3792C51.3084 16.5056 51.4041 16.6444 51.4343 16.7953C51.5879 17.5351 50.9362 18.0487 49.4659 18.3334C49.4257 17.7925 49.5176 17.3022 49.754 16.8599C49.9901 16.4165 50.2977 16.1914 50.6695 16.1914ZM4.76698 17.1808C4.76533 17.2002 4.76533 17.2069 4.76367 17.2181C4.7656 17.2642 4.76671 17.3101 4.76698 17.3557C4.76864 17.325 4.76864 17.3101 4.76864 17.2761L4.76698 17.1808Z" fill="#DB9FE5"/>
        <path d="M19.7557 0.668382C18.7562 -0.228539 17.5496 0.13081 16.3542 1.19767C16.1716 1.3647 15.9952 1.53753 15.8255 1.72073C13.7841 3.90169 11.8902 7.94115 11.3014 11.0253C11.5292 11.4948 11.7089 12.0921 11.8273 12.5489C11.8869 12.7739 11.9403 13.0035 11.9871 13.2336C11.9871 13.2336 11.9676 13.1639 11.8935 12.9434L11.8447 12.8029C11.8352 12.7766 11.8244 12.7507 11.8124 12.7254C11.6799 12.4129 11.3114 11.7539 11.1495 11.4671C11.0204 11.8468 10.8989 12.229 10.7851 12.6135C11.253 13.4764 11.5374 14.9545 11.5374 14.9545C11.5374 14.9545 11.5134 14.8575 11.395 14.5238C11.2915 14.2275 10.7722 13.3094 10.648 13.096C10.4377 13.8793 10.3553 14.409 10.4294 14.5371C10.5768 14.7862 10.7159 15.2168 10.8373 15.6931C11.1155 16.7665 11.3076 18.073 11.3076 18.073L11.3242 18.2897C11.2879 19.1832 11.3062 20.0781 11.3789 20.9693C11.4695 22.0884 11.6426 23.0466 11.8625 23.5614L12.0115 23.4785C11.6894 22.4672 11.5569 21.1392 11.6153 19.6111C11.7022 17.2734 12.2364 14.4529 13.2227 11.5143C14.8922 7.07822 17.2051 3.51789 19.3218 1.81772C17.3923 3.5726 14.78 9.25711 13.9974 11.3601C13.1225 13.7173 12.5014 15.9276 12.1279 18.0468C12.773 16.0603 14.8599 15.2069 14.8599 15.2069C14.8599 15.2069 15.8818 13.9361 17.0772 12.1211C16.3621 12.2844 15.1849 12.5663 14.7916 12.7329C14.211 12.9791 14.0545 13.0616 14.0545 13.0616C14.0545 13.0616 15.9369 11.9073 17.5513 11.3846C19.7719 7.86157 22.1917 2.85722 19.7557 0.668382ZM1.77633 1.19767C0.796242 1.20098 0.00372656 2.0005 0 2.98653V19.1817C0.00372656 20.1681 0.797898 20.966 1.77633 20.9693H10.894C10.8254 20.0914 10.8087 19.2102 10.8439 18.3304C10.8373 18.2686 10.8323 18.1923 10.8273 18.1343C10.7088 17.3551 10.5561 16.5815 10.3698 15.8157C10.2518 15.3577 10.1031 14.94 10.0124 14.7862C9.90065 14.5935 9.91721 14.4836 9.91845 14.3634C9.91845 14.247 9.93336 14.1255 9.95406 13.9879C10.0115 13.6447 10.087 13.3047 10.1806 12.9679L10.3909 12.9422C10.3743 12.9078 10.3781 12.8771 10.3603 12.8464L10.3213 12.4759C10.4373 12.0852 10.5608 11.697 10.6919 11.3112L10.884 11.2922C10.8778 11.2777 10.8745 11.2549 10.8662 11.2404L10.8261 10.9328C11.4356 7.73516 13.3299 3.67456 15.4714 1.38708C15.536 1.31911 15.6006 1.26274 15.664 1.19767H1.77633Z" fill="#DB9FE5"/>
    </g>
    <defs>
        <clipPath id="clip0_262_31">
            <rect width="53" height="24" fill="white"/>
        </clipPath>
    </defs>
</svg>
