<svg width="24" height="24" viewBox="0 0 24 24" fill="none" xmlns="http://www.w3.org/2000/svg">
    <g clip-path="url(#clip0_254_31)">
        <path fill-rule="evenodd" clip-rule="evenodd" d="M5.625 0H18.375C21.4816 0 24 2.5184 24 5.625V18.375C24 21.4816 21.4816 24 18.375 24H5.625C2.5184 24 0 21.4816 0 18.375V5.625C0 2.5184 2.5184 0 5.625 0ZM5.2998 13.0622L5.3074 12.0794L5.31884 11.1003L9.51312 11.0889C11.8179 11.0851 13.7188 11.0927 13.7303 11.1079C13.7456 11.1194 13.7569 11.5651 13.7569 12.0984V13.0622H10.6331V21.9384H8.42355V13.0622H5.2998ZM20.8667 11.9372C20.4401 11.4953 19.9752 11.2248 19.3658 11.0724C18.9505 10.9696 17.9677 10.9391 17.5448 11.0191C16.2419 11.2668 15.339 12.101 15.0838 13.2972C15.0115 13.64 15.0343 14.4896 15.1257 14.8286C15.2362 15.2362 15.5029 15.7239 15.7848 16.0286C16.2724 16.5543 16.8057 16.8857 18.0438 17.4191C19.1258 17.8877 19.5067 18.1125 19.6933 18.3791C19.8381 18.5886 19.8724 18.7105 19.8724 18.9887C19.8724 19.2972 19.781 19.5067 19.56 19.7087C19.042 20.1734 17.9905 20.2306 17.2248 19.8267C16.9581 19.6858 16.5162 19.2629 16.3143 18.9543L16.1696 18.741L15.48 19.141C15.0991 19.362 14.6952 19.5944 14.5886 19.6553C14.4781 19.7201 14.379 19.781 14.3677 19.7962C14.341 19.842 14.7715 20.4782 14.9924 20.722C15.5562 21.3468 16.4705 21.8229 17.4343 21.9944C17.8762 22.0743 18.8515 22.0858 19.2628 22.0134C20.5924 21.7886 21.5372 21.1105 21.9181 20.1124C22.2648 19.1943 22.1505 17.96 21.6401 17.1867C21.1828 16.4934 20.4476 16.0058 18.7296 15.2667C17.7962 14.8629 17.499 14.6648 17.3391 14.3334C17.2629 14.181 17.2362 14.0705 17.2362 13.8839C17.2324 13.2477 17.701 12.8667 18.4286 12.9163C18.9238 12.9505 19.2476 13.1448 19.5562 13.5944C19.659 13.7467 19.7505 13.8458 19.7734 13.8305C20.4057 13.4382 21.4496 12.7372 21.442 12.7067C21.4152 12.6039 21.0877 12.1734 20.8667 11.9372Z" fill="#DB9FE5"/>
    </g>
    <defs>
        <clipPath id="clip0_254_31">
            <rect width="24" height="24" fill="white"/>
        </clipPath>
    </defs>
</svg>